<?xml version="1.0" standalone="no"?>
<!DOCTYPE svg PUBLIC "-//W3C//DTD SVG 20010904//EN"
 "http://www.w3.org/TR/2001/REC-SVG-20010904/DTD/svg10.dtd">
<svg version="1.0" xmlns="http://www.w3.org/2000/svg"
 width="728.000000pt" height="724.000000pt" viewBox="0 0 728.000000 724.000000"
 preserveAspectRatio="xMidYMid meet">

<g transform="translate(0.000000,724.000000) scale(0.100000,-0.100000)"
fill="#000000" stroke="none">
<path d="M2154 5783 c-32 -54 -76 -129 -99 -168 -24 -38 -53 -90 -65 -115 -13
-25 -35 -63 -50 -85 -15 -22 -43 -69 -62 -105 -19 -36 -49 -87 -65 -115 -17
-27 -57 -95 -88 -150 -32 -55 -86 -148 -121 -208 -35 -59 -64 -109 -64 -112 0
-2 -20 -37 -44 -77 -24 -40 -70 -118 -101 -173 -32 -55 -79 -136 -105 -180
-25 -44 -64 -111 -86 -148 -21 -38 -64 -112 -96 -165 -63 -109 -140 -243 -217
-379 l-53 -93 53 -92 c77 -137 154 -271 217 -380 32 -53 75 -127 96 -165 22
-37 61 -104 86 -148 26 -44 73 -125 105 -180 31 -55 77 -133 101 -173 24 -40
44 -75 44 -77 0 -3 29 -53 64 -112 35 -60 89 -153 121 -208 31 -55 71 -122 88
-150 16 -27 46 -79 65 -115 19 -36 47 -83 62 -105 15 -22 37 -60 50 -85 12
-25 41 -76 65 -115 23 -38 67 -114 99 -168 l57 -97 1373 0 1373 0 63 108 c101
170 154 260 212 362 65 114 198 343 243 420 35 59 109 187 197 340 58 101 132
227 218 375 29 50 77 132 106 183 127 219 164 282 211 362 27 47 67 117 88
155 l38 70 -58 100 c-68 116 -147 253 -220 380 -28 50 -63 109 -78 132 -15 24
-27 45 -27 48 0 3 -29 53 -64 112 -35 60 -89 153 -121 208 -31 55 -71 123 -88
150 -16 28 -46 79 -65 115 -19 36 -47 83 -62 105 -15 22 -37 60 -50 85 -12 25
-41 77 -65 115 -23 39 -70 120 -105 180 -35 61 -84 146 -110 190 -26 44 -72
123 -102 175 -30 52 -77 133 -105 180 l-50 85 -1376 3 -1376 2 -57 -97z m1581
-1420 c86 -24 215 -90 275 -141 l44 -39 -68 -84 c-38 -46 -72 -88 -76 -92 -4
-5 -31 8 -60 29 -176 126 -475 131 -551 8 -67 -109 -16 -204 144 -272 442
-187 491 -213 570 -303 107 -122 118 -344 25 -491 -63 -100 -189 -189 -313
-222 -83 -23 -263 -31 -355 -17 -151 24 -319 99 -420 189 l-44 39 79 96 c44
53 83 96 87 96 4 1 29 -15 55 -35 67 -52 173 -100 260 -120 99 -22 239 -15
305 14 104 46 139 159 80 253 -32 50 -92 85 -262 157 -301 126 -358 159 -435
243 -74 83 -113 214 -95 325 31 187 188 333 410 380 85 18 254 11 345 -13z
m-1406 -65 c59 -184 271 -837 322 -993 32 -99 84 -256 114 -349 30 -93 55
-175 55 -183 0 -11 -27 -13 -152 -11 l-152 3 -60 213 -61 212 -262 0 -262 0
-24 -77 c-14 -43 -42 -140 -62 -215 l-38 -138 -149 0 c-81 0 -148 3 -148 8 0
8 170 535 225 697 43 126 259 795 276 853 l12 42 173 0 172 0 21 -62z m2281
57 c0 -3 30 -103 66 -223 67 -218 184 -613 184 -622 2 -19 22 41 44 125 14 55
45 163 69 240 24 77 68 218 98 313 l54 172 157 0 158 0 0 -228 c0 -126 3 -486
7 -800 l6 -572 -137 0 -137 0 4 398 c3 339 19 675 41 857 6 51 3 41 -68 -200
-31 -104 -76 -248 -102 -320 -25 -71 -59 -172 -76 -222 l-30 -93 -84 0 c-100
0 -89 -15 -163 214 -29 87 -63 188 -76 225 -13 36 -44 140 -69 230 -25 90 -48
167 -52 170 -3 3 -3 -16 0 -44 21 -169 28 -321 33 -742 l5 -473 -131 0 -131 0
0 793 c0 437 3 797 7 800 7 8 323 10 323 2z"/>
<path d="M2120 4090 c-63 -237 -136 -500 -156 -566 -13 -44 -24 -85 -24 -92 0
-9 50 -12 196 -12 181 0 196 1 190 17 -11 27 -104 360 -151 538 l-42 160 -13
-45z"/>
</g>
</svg>
